<?xml version="1.0" encoding="UTF-8"?>
<!DOCTYPE svg PUBLIC "-//W3C//DTD SVG 1.1//EN" "http://www.w3.org/Graphics/SVG/1.1/DTD/svg11.dtd">
<!-- Creator: CorelDRAW 2017 -->
<svg xmlns="http://www.w3.org/2000/svg" xml:space="preserve" width="500px" height="500px" version="1.1" style="shape-rendering:geometricPrecision; text-rendering:geometricPrecision; image-rendering:optimizeQuality; fill-rule:evenodd; clip-rule:evenodd"
viewBox="0 0 500 500"
 xmlns:xlink="http://www.w3.org/1999/xlink">
 <defs>
  <style type="text/css">
   <![CDATA[
    .fil0 {fill:#FF8833}
   ]]>
  </style>
 </defs>
 <g id="Layer_x0020_1">
  <metadata id="CorelCorpID_0Corel-Layer"/>
  <path class="fil0" d="M55 203l48 0 -15 241 62 -123c10,-21 21,-42 31,-63 9,-18 24,-45 31,-64l-44 0c1,-10 7,-25 10,-35 3,-10 8,-33 14,-34 50,0 90,0 123,27 27,22 41,61 37,111 -11,122 -126,100 -197,104l-40 78c78,2 177,6 237,-29 55,-32 91,-89 89,-178 -2,-87 -42,-140 -100,-167 -68,-32 -163,-23 -243,-23l-43 154z"/>
 </g>
</svg>
